<svg xmlns="http://www.w3.org/2000/svg" viewBox="0 0 285.8 88.74"><defs><style>.cls-1{fill:#fed136;}</style></defs><title>레이어 1</title><g id="레이어_2" data-name="레이어 2"><g id="레이어_1-2" data-name="레이어 1"><path d="M40,2.49v40H28.8V14.64L21,42.48H14.53l-8-27.37V42.48H2.64v-40H14.42l6.85,24.14L28.1,2.49Z"/><path d="M46.52,42.48V13a77.45,77.45,0,0,0,10.7-.79v30.3Zm5.42-41q5,0,5,3.87t-5,3.86q-5,0-5-3.86T51.94,1.49Z"/><path d="M86.31,20.53l-5.19.91q0-6.61-6.15-6.62-3.78,0-3.78,3.1,0,2.29,6.51,4.93,10,4.06,10,10.34,0,10-12.69,10-13.41,0-13.42-10l5.51-1.11a14.71,14.71,0,0,0-.12,1.81,5.8,5.8,0,0,0,2.16,4.48,7.41,7.41,0,0,0,5.08,1.91c2.58,0,3.87-1.1,3.87-3.28q0-2.2-6.24-4.87-9.4-4-9.41-10.37A8.21,8.21,0,0,1,66,14.89a15.15,15.15,0,0,1,9.26-2.68Q85.31,12.21,86.31,20.53Z"/><path d="M114.93,20.53l-5.18.91q0-6.61-6.16-6.62-3.77,0-3.77,3.1c0,1.53,2.16,3.17,6.5,4.93q10,4.06,10,10.34,0,10-12.69,10-13.41,0-13.41-10l5.51-1.11a14.71,14.71,0,0,0-.12,1.81,5.82,5.82,0,0,0,2.15,4.48,7.43,7.43,0,0,0,5.08,1.91c2.58,0,3.87-1.1,3.87-3.28q0-2.2-6.24-4.87Q91,28.1,91,21.76a8.22,8.22,0,0,1,3.6-6.87,15.15,15.15,0,0,1,9.26-2.68Q113.94,12.21,114.93,20.53Z"/><path d="M120.62,42.48V13a77.32,77.32,0,0,0,10.69-.79v30.3Zm5.42-41q5,0,5,3.87t-5,3.86q-5,0-5-3.86T126,1.49Z"/><path d="M165.27,42.48h-10.7V20.8c0-2.21-.61-3.31-1.84-3.31s-2.34.87-3.26,2.62a13.24,13.24,0,0,0-1.37,6.19V42.48H137.4V12.89a76.16,76.16,0,0,0,10.7-.74v5.54c2.65-3.67,5.9-5.51,9.72-5.51q7.44,0,7.45,7.56Z"/><path d="M190.52,13.24Q198,16.43,198,22.52a8.39,8.39,0,0,1-3.75,6.86,14.58,14.58,0,0,1-9.05,2.84,37.92,37.92,0,0,1-5.54-.53c-1.35.79-2,1.57-2,2.35,0,1.07.83,1.61,2.49,1.61q.65,0,2.61-.12,5-.31,7.2-.32,10.66,0,10.67,8.09,0,9.78-17.67,9.78-13.16,0-13.15-5.54c0-2.12,1.77-3.57,5.33-4.33q-5.69-1.5-5.68-5,0-4.3,6.76-7.59-5.94-2.4-5.94-8.17a9.19,9.19,0,0,1,3.6-7.37,13.58,13.58,0,0,1,8.93-3,39.84,39.84,0,0,1,4.78.38,11.78,11.78,0,0,1-.15-1.61c0-3.86,2-5.8,6.07-5.8q4.83,0,4.83,4.07c0,2.07-1,3.11-2.9,3.11a5.51,5.51,0,0,1-2.28-.64,3.66,3.66,0,0,0-1.23-.44C191,11.16,190.52,11.83,190.52,13.24Zm-6.89,31.17q-7.47,0-7.47,2.9c0,1.91,2.42,2.87,7.24,2.87q8.41,0,8.41-3.22Q191.81,44.41,183.63,44.41Zm.3-29.36q-3,0-3,7.45,0,6.83,3.1,6.82,2.85,0,2.85-6.06Q186.89,15.05,183.93,15.05Z"/><path d="M120,88v-40h17.26q14.67,0,14.68,11.74T135.63,71.66h-4V88ZM131.61,68h2.61q6.33,0,6.33-8.38,0-7.86-6.33-7.85h-2.61Z"/><path d="M155.46,88V58.53a77.32,77.32,0,0,0,10.69-.79V88Zm5.42-41q5,0,5,3.87c0,2.58-1.66,3.86-5,3.86s-5-1.28-5-3.86S157.56,47.05,160.88,47.05Z"/><path d="M193.34,77.23l4.31,1.26Q197,88.71,185.58,88.71q-14.78,0-14.77-14.74,0-7.14,3.93-11.71a12.64,12.64,0,0,1,10-4.57q12.79,0,12.8,16.52H182q0,11.6,5.89,11.6,5.51,0,5.51-6.56C193.4,78.66,193.38,78,193.34,77.23ZM182,70.9h6.39q0-10.32-3.1-10.31c-1.88,0-2.93,2.54-3.17,7.64Z"/><path d="M223.14,74.85l4.51,1.38,0,1.2q0,11.25-12.31,11.25-14.58,0-14.59-14.79,0-7.42,4.25-11.83t11.4-4.4q10.27,0,10.28,9.31l-5,2.43.06-2.81q0-6.33-4.25-6.33-5.62,0-5.62,12.43,0,7.66,1.2,10.53a4.42,4.42,0,0,0,4.45,2.85q6,0,6-7.7A28.73,28.73,0,0,0,223.14,74.85Z"/><path d="M252.58,77.23l4.31,1.26q-.67,10.22-12.07,10.22Q230,88.71,230.05,74q0-7.14,3.93-11.71a12.62,12.62,0,0,1,10-4.57q12.81,0,12.81,16.52H241.24q0,11.6,5.89,11.6,5.51,0,5.51-6.56C252.64,78.66,252.62,78,252.58,77.23ZM241.21,70.9h6.39q0-10.32-3.11-10.31c-1.87,0-2.93,2.54-3.16,7.64Z"/><path d="M284.45,66.09l-5.18.91q0-6.61-6.15-6.62-3.78,0-3.78,3.11,0,2.28,6.5,4.92,10,4.07,10,10.34,0,10-12.68,10-13.42,0-13.42-10l5.51-1.11a14.71,14.71,0,0,0-.12,1.81,5.84,5.84,0,0,0,2.15,4.49,7.48,7.48,0,0,0,5.09,1.9q3.85,0,3.86-3.28,0-2.2-6.24-4.87-9.4-4-9.4-10.37a8.22,8.22,0,0,1,3.6-6.87,15.15,15.15,0,0,1,9.26-2.68Q283.46,57.77,284.45,66.09Z"/><path class="cls-1" d="M37.35,1V41H26.16V13.15L18.37,41H11.89l-8-27.37V41H0V1H11.78l6.85,24.14L25.46,1Z"/><path class="cls-1" d="M43.89,41V11.48a77.32,77.32,0,0,0,10.69-.79V41ZM49.31,0q5,0,5,3.87c0,2.58-1.66,3.86-5,3.86s-5-1.28-5-3.86S46,0,49.31,0Z"/><path class="cls-1" d="M83.67,19,78.49,20q0-6.61-6.16-6.62-3.78,0-3.78,3.11,0,2.28,6.51,4.92Q85,25.43,85,31.7q0,10-12.69,10-13.41,0-13.41-10l5.5-1.11a16.85,16.85,0,0,0-.11,1.81,5.77,5.77,0,0,0,2.15,4.48,7.43,7.43,0,0,0,5.08,1.91q3.87,0,3.87-3.28,0-2.2-6.24-4.87-9.41-4-9.4-10.37a8.22,8.22,0,0,1,3.6-6.87,15.15,15.15,0,0,1,9.26-2.68Q82.68,10.72,83.67,19Z"/><path class="cls-1" d="M112.29,19l-5.18.91q0-6.61-6.15-6.62-3.78,0-3.78,3.11,0,2.28,6.5,4.92,10,4.07,10,10.34,0,10-12.68,10-13.42,0-13.42-10l5.51-1.11a14.71,14.71,0,0,0-.12,1.81,5.8,5.8,0,0,0,2.15,4.48,7.44,7.44,0,0,0,5.09,1.91q3.85,0,3.86-3.28,0-2.2-6.24-4.87-9.41-4-9.4-10.37A8.22,8.22,0,0,1,92,13.4a15.15,15.15,0,0,1,9.26-2.68Q111.3,10.72,112.29,19Z"/><path class="cls-1" d="M118,41V11.48a77.32,77.32,0,0,0,10.69-.79V41ZM123.4,0q5,0,5,3.87c0,2.58-1.66,3.86-5,3.86s-5-1.28-5-3.86S120.08,0,123.4,0Z"/><path class="cls-1" d="M162.63,41h-10.7V19.31c0-2.21-.61-3.31-1.84-3.31s-2.34.87-3.25,2.62a13.12,13.12,0,0,0-1.38,6.19V41H134.77V11.4a76.13,76.13,0,0,0,10.69-.74V16.2q4-5.5,9.73-5.51,7.44,0,7.44,7.56Z"/><path class="cls-1" d="M187.88,11.75q7.47,3.2,7.47,9.29a8.38,8.38,0,0,1-3.75,6.85,14.52,14.52,0,0,1-9,2.84,39.23,39.23,0,0,1-5.54-.52c-1.35.78-2,1.56-2,2.34,0,1.07.83,1.61,2.49,1.61q.65,0,2.61-.12,4.95-.32,7.2-.32,10.67,0,10.67,8.09,0,9.78-17.67,9.78-13.15,0-13.15-5.54c0-2.12,1.78-3.57,5.33-4.33q-5.68-1.5-5.68-4.95,0-4.31,6.76-7.59-5.94-2.4-5.94-8.17a9.19,9.19,0,0,1,3.6-7.37,13.59,13.59,0,0,1,8.94-3,39.85,39.85,0,0,1,4.77.38,11.78,11.78,0,0,1-.15-1.61c0-3.86,2-5.8,6.07-5.8q4.83,0,4.83,4.08c0,2.07-1,3.1-2.9,3.1a5.36,5.36,0,0,1-2.28-.64,3.66,3.66,0,0,0-1.23-.44C188.34,9.67,187.88,10.34,187.88,11.75ZM181,42.92c-5,0-7.48,1-7.48,2.9s2.42,2.87,7.24,2.87q8.42,0,8.41-3.22C189.17,43.77,186.44,42.92,181,42.92Zm.29-29.36q-3,0-3,7.45,0,6.82,3.11,6.82,2.84,0,2.84-6.06Q184.25,13.57,181.29,13.56Z"/><path class="cls-1" d="M117.37,86.55v-40h17.26q14.67,0,14.68,11.75T133,70.17h-4V86.55ZM129,66.48h2.6q6.33,0,6.33-8.38,0-7.85-6.33-7.85H129Z"/><path class="cls-1" d="M152.82,86.55V57.05a77.54,77.54,0,0,0,10.7-.8v30.3Zm5.42-41q5,0,5,3.87t-5,3.87q-5,0-5-3.87T158.24,45.56Z"/><path class="cls-1" d="M190.7,75.74,195,77q-.67,10.22-12.07,10.22-14.76,0-14.77-14.74,0-7.14,3.93-11.71a12.65,12.65,0,0,1,10.05-4.57q12.79,0,12.8,16.52H179.37q0,11.6,5.88,11.6,5.52,0,5.51-6.56C190.76,77.17,190.74,76.5,190.7,75.74Zm-11.36-6.33h6.38q0-10.32-3.1-10.31c-1.88,0-2.93,2.55-3.17,7.64Z"/><path class="cls-1" d="M220.5,73.36,225,74.74l0,1.2q0,11.25-12.31,11.25-14.58,0-14.58-14.79,0-7.41,4.24-11.82c2.84-2.94,6.63-4.41,11.4-4.41q10.29,0,10.28,9.31l-5,2.43.06-2.81c0-4.22-1.41-6.33-4.25-6.33q-5.62,0-5.62,12.43,0,7.67,1.2,10.53a4.42,4.42,0,0,0,4.45,2.85q6,0,5.95-7.7A28.73,28.73,0,0,0,220.5,73.36Z"/><path class="cls-1" d="M249.94,75.74,254.25,77q-.67,10.22-12.07,10.22-14.77,0-14.77-14.74,0-7.14,3.93-11.71a12.65,12.65,0,0,1,10-4.57q12.8,0,12.8,16.52H238.6q0,11.6,5.89,11.6,5.5,0,5.51-6.56C250,77.17,250,76.5,249.94,75.74Zm-11.37-6.33H245q0-10.32-3.1-10.31c-1.88,0-2.93,2.55-3.17,7.64Z"/><path class="cls-1" d="M281.82,64.6l-5.19.91q0-6.62-6.15-6.62-3.78,0-3.78,3.11,0,2.28,6.5,4.92,10,4.06,10,10.34,0,10-12.68,10-13.43,0-13.42-10l5.51-1.11a14.71,14.71,0,0,0-.12,1.81,5.84,5.84,0,0,0,2.15,4.49,7.43,7.43,0,0,0,5.09,1.9q3.87,0,3.87-3.28,0-2.2-6.25-4.86-9.39-4-9.4-10.38a8.22,8.22,0,0,1,3.6-6.87,15.17,15.17,0,0,1,9.26-2.68Q280.82,56.28,281.82,64.6Z"/></g></g></svg>